<svg width="1787" height="828" viewBox="0 0 1787 828" fill="none" xmlns="http://www.w3.org/2000/svg">
<rect width="1787" height="828" fill="#DBDBDB"/>
<g filter="url(#filter0_i_104_398)">
<path d="M811.957 286.136L659.779 393.875L724.261 391.779C737.916 391.335 749.125 386.27 753.022 383.793L812.914 340.621C843.5 317 843.594 316.57 864.998 315.874C864.495 319.868 863.182 330.091 861.953 339.027C860.418 350.196 862.554 365.858 840.88 366.562C823.54 367.126 812.901 368.014 809.749 368.388C786.019 372.631 758.995 397.883 748.449 409.978C757.39 409.688 787.689 408.974 837.359 408.445C887.029 407.915 906.42 377.541 909.906 362.42L921.036 270.928C909.103 270.955 879.759 271.023 857.846 271.084C835.934 271.145 818.123 281.145 811.957 286.136Z" fill="#333333"/>
</g>
<g filter="url(#filter1_d_104_398)">
<path d="M974.456 451.088L1126.63 343.349L1062.15 345.445C1048.5 345.889 1037.29 350.954 1033.39 353.431L973.499 396.604C942.335 419.097 942.819 420.655 921.415 421.35C921.918 417.356 923.232 407.134 924.46 398.198C925.995 387.028 923.859 371.366 945.534 370.662C962.873 370.098 973.513 369.21 976.665 368.836C1000.39 364.593 1027.42 339.341 1037.96 327.246C1029.02 327.536 998.724 328.25 949.054 328.78C899.384 329.309 879.994 359.683 876.507 374.804L865.378 466.296C877.311 466.269 906.654 466.202 928.567 466.14C950.479 466.079 968.29 456.08 974.456 451.088Z" fill="url(#paint0_linear_104_398)" shape-rendering="crispEdges"/>
</g>
<g filter="url(#filter2_d_104_398)">
<path d="M509.714 542.562C509.714 545.974 509.115 549.112 507.917 551.977C506.745 554.841 505.118 557.315 503.034 559.398C500.951 561.456 498.477 563.07 495.612 564.242C492.748 565.414 489.636 566 486.277 566H458.855C458.126 566 457.448 565.87 456.823 565.609C456.198 565.349 455.652 564.997 455.183 564.555C454.74 564.086 454.389 563.539 454.128 562.914C453.868 562.289 453.737 561.612 453.737 560.883V515.102C453.737 514.398 453.868 513.734 454.128 513.109C454.389 512.484 454.74 511.938 455.183 511.469C455.652 511 456.198 510.635 456.823 510.375C457.448 510.115 458.126 509.984 458.855 509.984H486.277C489.636 509.984 492.748 510.57 495.612 511.742C498.477 512.914 500.951 514.542 503.034 516.625C505.118 518.682 506.745 521.156 507.917 524.047C509.115 526.911 509.714 530.036 509.714 533.422V542.562ZM499.558 533.422C499.558 531.443 499.232 529.633 498.581 527.992C497.956 526.352 497.058 524.958 495.886 523.812C494.714 522.641 493.308 521.742 491.667 521.117C490.053 520.466 488.256 520.141 486.277 520.141H463.894V555.844H486.277C488.256 555.844 490.053 555.531 491.667 554.906C493.308 554.255 494.714 553.357 495.886 552.211C497.058 551.039 497.956 549.646 498.581 548.031C499.232 546.391 499.558 544.568 499.558 542.562V533.422ZM628.234 528.734C628.234 531.052 627.935 533.122 627.336 534.945C626.763 536.768 625.995 538.383 625.031 539.789C624.068 541.169 622.935 542.354 621.633 543.344C620.357 544.333 619.029 545.154 617.648 545.805C616.268 546.43 614.862 546.885 613.43 547.172C612.023 547.458 610.695 547.602 609.445 547.602H605.344V566H595.109V547.602H591.047C589.797 547.602 588.456 547.458 587.023 547.172C585.617 546.885 584.211 546.43 582.805 545.805C581.424 545.154 580.096 544.333 578.82 543.344C577.544 542.354 576.411 541.169 575.422 539.789C574.458 538.383 573.677 536.768 573.078 534.945C572.505 533.096 572.219 531.026 572.219 528.734V509.984H582.375V528.734C582.375 530.062 582.583 531.26 583 532.328C583.417 533.37 584.003 534.268 584.758 535.023C585.513 535.779 586.424 536.365 587.492 536.781C588.586 537.172 589.797 537.367 591.125 537.367H609.445C610.409 537.211 611.398 537.016 612.414 536.781C613.43 536.521 614.354 536.091 615.188 535.492C616.021 534.893 616.711 534.06 617.258 532.992C617.805 531.924 618.078 530.505 618.078 528.734V509.984H628.234V528.734ZM748.552 561.664C748.552 562.393 748.408 563.07 748.122 563.695C747.861 564.32 747.497 564.867 747.028 565.336C746.585 565.779 746.052 566.13 745.427 566.391C744.802 566.651 744.137 566.781 743.434 566.781C742.809 566.781 742.171 566.664 741.52 566.43C740.895 566.195 740.335 565.818 739.841 565.297L702.731 526.547V566H692.575V514.32C692.575 513.279 692.861 512.341 693.434 511.508C694.033 510.648 694.789 510.01 695.7 509.594C696.664 509.203 697.653 509.112 698.669 509.32C699.684 509.503 700.557 509.971 701.286 510.727L738.395 549.438V509.984H748.552V561.664ZM870.548 566H860.392V552.25H824.689V566H814.533V537.992C814.533 533.904 815.236 530.141 816.642 526.703C818.048 523.266 820.002 520.31 822.502 517.836C825.002 515.362 827.957 513.435 831.369 512.055C834.78 510.674 838.504 509.984 842.541 509.984H865.431C866.134 509.984 866.798 510.115 867.423 510.375C868.048 510.635 868.595 511 869.064 511.469C869.533 511.938 869.897 512.484 870.158 513.109C870.418 513.734 870.548 514.398 870.548 515.102V566ZM824.689 542.094H860.392V520.141H842.541C842.228 520.141 841.564 520.193 840.548 520.297C839.559 520.375 838.4 520.596 837.072 520.961C835.77 521.326 834.39 521.885 832.931 522.641C831.473 523.396 830.132 524.438 828.908 525.766C827.684 527.094 826.668 528.76 825.861 530.766C825.08 532.745 824.689 535.154 824.689 537.992V542.094ZM993.639 509.984L967.116 564.008C966.699 564.841 966.074 565.505 965.241 566C964.433 566.521 963.535 566.781 962.545 566.781C961.582 566.781 960.683 566.521 959.85 566C959.043 565.505 958.418 564.841 957.975 564.008L931.491 509.984H942.858L962.545 550.336L982.311 509.984H993.639ZM1100.64 543.109H1068.57V532.875H1100.64V543.109ZM1105.21 566H1068.57C1067.16 566 1065.62 565.753 1063.96 565.258C1062.29 564.763 1060.74 563.956 1059.31 562.836C1057.9 561.69 1056.72 560.219 1055.75 558.422C1054.82 556.599 1054.35 554.372 1054.35 551.742V515.102C1054.35 514.398 1054.48 513.734 1054.74 513.109C1055 512.484 1055.35 511.938 1055.79 511.469C1056.26 511 1056.81 510.635 1057.43 510.375C1058.06 510.115 1058.73 509.984 1059.46 509.984H1105.21V520.141H1064.5V551.742C1064.5 553.07 1064.85 554.086 1065.56 554.789C1066.26 555.492 1067.29 555.844 1068.64 555.844H1105.21V566ZM1223.84 549.516C1223.84 551.521 1223.58 553.331 1223.06 554.945C1222.57 556.534 1221.9 557.94 1221.07 559.164C1220.24 560.388 1219.26 561.43 1218.14 562.289C1217.02 563.148 1215.86 563.852 1214.66 564.398C1213.47 564.945 1212.24 565.349 1210.99 565.609C1209.77 565.87 1208.61 566 1207.52 566H1168.34V555.844H1207.52C1209.47 555.844 1210.98 555.271 1212.05 554.125C1213.14 552.979 1213.69 551.443 1213.69 549.516C1213.69 548.578 1213.54 547.719 1213.26 546.938C1212.97 546.156 1212.55 545.479 1212.01 544.906C1211.49 544.333 1210.84 543.891 1210.05 543.578C1209.3 543.266 1208.45 543.109 1207.52 543.109H1184.16C1182.52 543.109 1180.74 542.823 1178.84 542.25C1176.94 541.651 1175.17 540.701 1173.53 539.398C1171.92 538.096 1170.56 536.391 1169.47 534.281C1168.4 532.172 1167.87 529.594 1167.87 526.547C1167.87 523.5 1168.4 520.935 1169.47 518.852C1170.56 516.742 1171.92 515.036 1173.53 513.734C1175.17 512.406 1176.94 511.456 1178.84 510.883C1180.74 510.284 1182.52 509.984 1184.16 509.984H1218.73V520.141H1184.16C1182.23 520.141 1180.72 520.727 1179.62 521.898C1178.56 523.07 1178.02 524.62 1178.02 526.547C1178.02 528.5 1178.56 530.049 1179.62 531.195C1180.72 532.315 1182.23 532.875 1184.16 532.875H1207.52H1207.59C1208.69 532.901 1209.85 533.057 1211.07 533.344C1212.29 533.604 1213.51 534.021 1214.7 534.594C1215.93 535.167 1217.09 535.896 1218.18 536.781C1219.27 537.641 1220.24 538.682 1221.07 539.906C1221.93 541.13 1222.61 542.536 1223.1 544.125C1223.6 545.714 1223.84 547.51 1223.84 549.516ZM1337.48 520.141H1315.1V566H1304.94V520.141H1282.52V509.984H1337.48V520.141Z" fill="#333333"/>
</g>
<defs>
<filter id="filter0_i_104_398" x="659.779" y="270.928" width="261.256" height="143.05" filterUnits="userSpaceOnUse" color-interpolation-filters="sRGB">
<feFlood flood-opacity="0" result="BackgroundImageFix"/>
<feBlend mode="normal" in="SourceGraphic" in2="BackgroundImageFix" result="shape"/>
<feColorMatrix in="SourceAlpha" type="matrix" values="0 0 0 0 0 0 0 0 0 0 0 0 0 0 0 0 0 0 127 0" result="hardAlpha"/>
<feOffset dy="4"/>
<feGaussianBlur stdDeviation="2"/>
<feComposite in2="hardAlpha" operator="arithmetic" k2="-1" k3="1"/>
<feColorMatrix type="matrix" values="0 0 0 0 0 0 0 0 0 0 0 0 0 0 0 0 0 0 1 0"/>
<feBlend mode="normal" in2="shape" result="effect1_innerShadow_104_398"/>
</filter>
<filter id="filter1_d_104_398" x="861.378" y="327.246" width="269.256" height="147.05" filterUnits="userSpaceOnUse" color-interpolation-filters="sRGB">
<feFlood flood-opacity="0" result="BackgroundImageFix"/>
<feColorMatrix in="SourceAlpha" type="matrix" values="0 0 0 0 0 0 0 0 0 0 0 0 0 0 0 0 0 0 127 0" result="hardAlpha"/>
<feOffset dy="4"/>
<feGaussianBlur stdDeviation="2"/>
<feComposite in2="hardAlpha" operator="out"/>
<feColorMatrix type="matrix" values="0 0 0 0 0 0 0 0 0 0 0 0 0 0 0 0 0 0 1 0"/>
<feBlend mode="normal" in2="BackgroundImageFix" result="effect1_dropShadow_104_398"/>
<feBlend mode="normal" in="SourceGraphic" in2="effect1_dropShadow_104_398" result="shape"/>
</filter>
<filter id="filter2_d_104_398" x="449.738" y="509.008" width="891.744" height="65.7734" filterUnits="userSpaceOnUse" color-interpolation-filters="sRGB">
<feFlood flood-opacity="0" result="BackgroundImageFix"/>
<feColorMatrix in="SourceAlpha" type="matrix" values="0 0 0 0 0 0 0 0 0 0 0 0 0 0 0 0 0 0 127 0" result="hardAlpha"/>
<feOffset dy="4"/>
<feGaussianBlur stdDeviation="2"/>
<feComposite in2="hardAlpha" operator="out"/>
<feColorMatrix type="matrix" values="0 0 0 0 0 0 0 0 0 0 0 0 0 0 0 0 0 0 1 0"/>
<feBlend mode="normal" in2="BackgroundImageFix" result="effect1_dropShadow_104_398"/>
<feBlend mode="normal" in="SourceGraphic" in2="effect1_dropShadow_104_398" result="shape"/>
</filter>
<linearGradient id="paint0_linear_104_398" x1="993.486" y1="327.306" x2="997.927" y2="463.918" gradientUnits="userSpaceOnUse">
<stop stop-color="#2DD4BF"/>
<stop offset="1" stop-color="#2563EB" stop-opacity="0.996078"/>
</linearGradient>
</defs>
</svg>
